# File created by Blade
# Date/Time:  Thu Jan 22 16:31:11 2015
# Frame Rate: 120.000 fps
#------------------------------------------------------
:FULLY-SPECIFIED
:DEGREES
878
root 24.589717 22.213823 -0.690302 12.354937 37.643489 -17.949770
RightUpLeg 9.467483 -13.964139 -30.492046
RightLeg 5.350795 -0.000000 -0.000000
RightFoot -14.431107 -20.300513 46.466268
RightToeBase 13.584495 -0.000000 -0.000000
LeftUpLeg -101.518014 20.177172 1.342148
LeftLeg 111.706826 -0.000000 -0.000000
LeftFoot -34.736722 6.290018 -16.787858
LeftToeBase -2.957910 -0.000000 0.000000
Spine 43.615447 4.708855 -47.107547
RightShoulder -1.778050 -1.060674 -40.791749
RightArm 0.467912 30.837868 17.463527
RightForeArm 13.582035 -0.000000 27.001089
RightHand 15.454878 -0.000000 -47.437936
RightHandThumb1 -24.326973 -0.000000 -32.862282
LeftShoulder -4.004619 21.867400 17.407968
LeftArm 72.189716 -52.137132 -92.208851
LeftForeArm -23.965406 -0.000000 12.098974
LeftHand -30.024519 -0.000000 56.903467
LeftHandThumb1 -26.253704 0.000000 33.147579
Head -2.625581 -18.588300 -26.510877
879
root 24.532932 22.366521 -0.714296 12.779425 37.697763 -17.706438
RightUpLeg 9.210719 -14.004812 -30.539772
RightLeg 5.171004 -0.000000 -0.000000
RightFoot -13.565550 -20.361287 46.205971
RightToeBase 13.247764 -0.000000 -0.000000
LeftUpLeg -101.347216 20.032712 1.252745
LeftLeg 110.957391 -0.000000 -0.000000
LeftFoot -34.560749 6.367405 -16.825321
LeftToeBase -2.833269 -0.000000 0.000000
Spine 43.734618 4.585062 -46.881361
RightShoulder -1.737974 -1.418508 -40.332683
RightArm 0.438603 30.285834 18.193950
RightForeArm 13.772458 -0.000000 26.214716
RightHand 15.418534 -0.000000 -46.951526
RightHandThumb1 -24.326973 -0.000000 -32.862282
LeftShoulder -3.805226 21.460469 17.506973
LeftArm 71.124596 -52.240223 -90.916756
LeftForeArm -25.104471 -0.000000 11.494590
LeftHand -29.547078 -0.000000 53.413701
LeftHandThumb1 -26.253704 0.000000 33.147579
Head -2.748664 -18.839953 -26.264311
880
root 24.471184 22.519172 -0.735445 13.210547 37.707163 -17.446510
RightUpLeg 8.917305 -13.880616 -30.569839
RightLeg 5.017061 -0.000000 -0.000000
RightFoot -12.908773 -20.431056 46.106895
RightToeBase 13.015505 -0.000000 -0.000000
LeftUpLeg -101.165968 19.931269 1.159965
LeftLeg 110.209055 -0.000000 -0.000000
LeftFoot -34.365150 6.447916 -16.861880
LeftToeBase -2.728305 -0.000000 0.000000
Spine 43.829251 4.484459 -46.656325
RightShoulder -1.734514 -1.754599 -39.934428
RightArm 0.354839 29.703400 18.940309
RightForeArm 13.935220 0.000000 25.522882
RightHand 15.254003 -0.000000 -46.698183
RightHandThumb1 -24.326973 -0.000000 -32.862282
LeftShoulder -3.667197 21.197236 17.564836
LeftArm 70.376436 -52.280051 -89.879295
LeftForeArm -25.824963 -0.000000 10.819645
LeftHand -29.084617 -0.000000 50.352094
LeftHandThumb1 -26.253704 0.000000 33.147579
Head -3.005399 -18.959661 -25.906171
881
root 24.415724 22.674319 -0.756897 13.620203 37.734122 -17.117481
RightUpLeg 8.706408 -13.755131 -30.665400
RightLeg 4.842717 -0.000000 -0.000000
RightFoot -12.221077 -20.579251 45.938427
RightToeBase 12.770664 -0.000000 -0.000000
LeftUpLeg -100.892507 19.799813 1.029487
LeftLeg 109.442221 -0.000000 -0.000000
LeftFoot -34.179583 6.542065 -16.831727
LeftToeBase -2.618423 -0.000000 0.000000
Spine 43.973602 4.364174 -46.477847
RightShoulder -1.718322 -2.130624 -39.567134
RightArm 0.355580 29.237077 19.735774
RightForeArm 14.450490 -0.000000 24.830073
RightHand 15.306034 -0.000000 -46.665514
RightHandThumb1 -24.326973 -0.000000 -32.862282
LeftShoulder -3.569555 20.963309 17.637600
LeftArm 69.758362 -52.267354 -89.029192
LeftForeArm -26.229110 -0.000000 10.010378
LeftHand -28.251152 0.000000 47.257060
LeftHandThumb1 -26.253704 0.000000 33.147579
Head -3.186887 -19.071824 -25.628094
882
root 24.355826 22.828153 -0.777163 14.026298 37.737352 -16.848612
RightUpLeg 8.446655 -13.535043 -30.672610
RightLeg 4.649463 -0.000000 -0.000000
RightFoot -11.682090 -20.823207 45.878305
RightToeBase 12.518357 -0.000000 -0.000000
LeftUpLeg -100.675504 19.708797 0.932318
LeftLeg 108.666707 -0.000000 -0.000000
LeftFoot -33.962923 6.635742 -16.819118
LeftToeBase -2.670987 -0.000000 0.000000
Spine 44.044582 4.247048 -46.207585
RightShoulder -1.715850 -2.704554 -39.255597
RightArm 0.385448 28.976278 20.600173
RightForeArm 15.057350 -0.000000 24.222056
RightHand 15.235264 -0.000000 -46.930212
RightHandThumb1 -24.326973 -0.000000 -32.862282
LeftShoulder -3.564046 20.855307 17.599495
LeftArm 69.712663 -52.199013 -88.680718
LeftForeArm -26.244084 -0.000000 9.047409
LeftHand -27.282617 -0.000000 43.811655
LeftHandThumb1 -26.253704 0.000000 33.147579
Head -3.333891 -19.180116 -25.347921
883
root 24.299845 22.984038 -0.801045 14.461001 37.800411 -16.453534
RightUpLeg 8.266522 -13.451952 -30.789720
RightLeg 4.461727 -0.000000 -0.000000
RightFoot -11.178718 -21.085937 45.841896
RightToeBase 12.313362 -0.000000 -0.000000
LeftUpLeg -100.366384 19.519676 0.769473
LeftLeg 107.857443 -0.000000 -0.000000
LeftFoot -33.776541 6.702787 -16.805617
LeftToeBase -2.575107 -0.000000 0.000000
Spine 44.242783 4.180579 -45.985701
RightShoulder -1.830543 -3.045951 -38.835514
RightArm 0.311885 28.423003 21.270557
RightForeArm 15.732295 0.000000 23.569734
RightHand 15.327098 0.000000 -46.904228
RightHandThumb1 -24.326973 -0.000000 -32.862282
LeftShoulder -3.501463 20.680871 17.761983
LeftArm 69.699977 -52.113966 -88.628542
LeftForeArm -26.097993 -0.000000 8.052496
LeftHand -26.009549 0.000000 40.437557
LeftHandThumb1 -26.253704 0.000000 33.147579
Head -3.503108 -19.534073 -24.933505
884
root 24.250142 23.147467 -0.821030 14.958568 37.770561 -15.954235
RightUpLeg 8.015144 -13.327791 -30.982867
RightLeg 4.326826 -0.000000 -0.000000
RightFoot -10.730899 -21.407522 45.765826
RightToeBase 12.118551 -0.000000 -0.000000
LeftUpLeg -100.014159 19.392636 0.544300
LeftLeg 107.051642 -0.000000 -0.000000
LeftFoot -33.541849 6.658625 -16.909918
LeftToeBase -2.521004 -0.000000 0.000000
Spine 44.306618 4.158599 -45.956000
RightShoulder -1.790096 -3.420320 -38.362328
RightArm 0.190498 28.069549 21.925886
RightForeArm 16.333489 -0.000000 22.884062
RightHand 15.487937 0.000000 -46.985769
RightHandThumb1 -24.326973 -0.000000 -32.862282
LeftShoulder -3.516436 20.733896 17.881004
LeftArm 70.231188 -52.102634 -89.007837
LeftForeArm -25.825111 -0.000000 6.876123
LeftHand -24.502888 -0.000000 37.097577
LeftHandThumb1 -26.253704 0.000000 33.147579
Head -3.554224 -19.356778 -24.287477
885
root 24.192526 23.318546 -0.842469 15.518182 37.801324 -15.497546
RightUpLeg 7.740235 -13.206123 -31.059422
RightLeg 4.097367 -0.000000 -0.000000
RightFoot -10.428564 -21.904032 45.781550
RightToeBase 12.007135 -0.000000 -0.000000
LeftUpLeg -99.757994 19.205201 0.349833
LeftLeg 106.195502 -0.000000 -0.000000
LeftFoot -33.254188 6.628079 -17.023781
LeftToeBase -2.454385 -0.000000 0.000000
Spine 44.360622 4.131827 -45.836738
RightShoulder -1.951085 -3.904743 -37.710053
RightArm 0.235504 27.702639 22.476785
RightForeArm 17.003694 -0.000000 22.140040
RightHand 15.763673 -0.000000 -47.517388
RightHandThumb1 -24.326973 -0.000000 -32.862282
LeftShoulder -3.395988 20.781091 18.221561
LeftArm 70.852448 -52.179341 -89.894830
LeftForeArm -24.977983 -0.000000 5.931477
LeftHand -22.990732 -0.000000 33.841360
LeftHandThumb1 -26.253704 0.000000 33.147579
Head -3.810461 -19.390112 -23.376083
886
root 24.136122 23.482102 -0.860098 15.985244 37.845139 -15.065727
RightUpLeg 7.523759 -13.253836 -31.155888
RightLeg 3.918497 -0.000000 -0.000000
RightFoot -10.063571 -22.289852 45.754236
RightToeBase 11.827806 -0.000000 -0.000000
LeftUpLeg -99.447932 19.020281 0.167658
LeftLeg 105.366947 -0.000000 -0.000000
LeftFoot -32.996060 6.673844 -17.084754
LeftToeBase -2.398010 -0.000000 0.000000
Spine 44.469166 3.750125 -45.811117
RightShoulder -1.831779 -4.026671 -37.498033
RightArm 0.135340 27.598748 23.356522
RightForeArm 17.305817 0.000000 21.758986
RightHand 15.708646 -0.000000 -47.631000
RightHandThumb1 -24.326973 -0.000000 -32.862282
LeftShoulder -3.379919 20.602617 18.298335
LeftArm 70.230656 -52.583955 -89.628593
LeftForeArm -24.021894 -0.000000 5.011371
LeftHand -21.497726 -0.000000 30.161505
LeftHandThumb1 -26.253704 0.000000 33.147579
Head -4.134439 -19.492168 -22.884461
887
root 24.085056 23.641809 -0.878266 16.428412 37.834681 -14.612503
RightUpLeg 7.300369 -13.380205 -31.302085
RightLeg 3.770126 -0.000000 -0.000000
RightFoot -9.642380 -22.624564 45.665438
RightToeBase 11.642656 -0.000000 -0.000000
LeftUpLeg -99.106451 18.882213 -0.067101
LeftLeg 104.556275 -0.000000 -0.000000
LeftFoot -32.763742 6.733599 -17.138514
LeftToeBase -2.383429 -0.000000 0.000000
Spine 44.546269 3.467180 -45.772294
RightShoulder -1.841924 -4.302800 -37.270120
RightArm 0.314201 27.533194 24.265011
RightForeArm 17.828810 -0.000000 21.084886
RightHand 15.999501 -0.000000 -47.594722
RightHandThumb1 -24.326973 -0.000000 -32.862282
LeftShoulder -3.281312 20.379093 18.398376
LeftArm 69.468957 -53.079949 -89.291198
LeftForeArm -22.799874 0.000000 4.156154
LeftHand -19.892702 -0.000000 26.305646
LeftHandThumb1 -26.253704 0.000000 33.147579
Head -4.395486 -19.533689 -22.325532
888
root 24.033588 23.806169 -0.891703 16.854035 37.815982 -14.152782
RightUpLeg 7.082591 -13.586360 -31.457699
RightLeg 3.645683 -0.000000 -0.000000
RightFoot -9.135089 -22.962306 45.493248
RightToeBase 11.345054 -0.000000 -0.000000
LeftUpLeg -98.726782 18.735310 -0.281332
LeftLeg 103.734526 -0.000000 -0.000000
LeftFoot -32.520156 6.821447 -17.245704
LeftToeBase -2.261358 -0.000000 0.000000
Spine 44.635630 3.301212 -45.714180
RightShoulder -1.941390 -4.562876 -36.888633
RightArm 0.375906 27.339660 25.009402
RightForeArm 18.317504 -0.000000 20.621272
RightHand 15.888057 -0.000000 -47.587584
RightHandThumb1 -24.326973 -0.000000 -32.862282
LeftShoulder -3.079432 20.136984 18.551300
LeftArm 68.360299 -53.631845 -88.582157
LeftForeArm -21.623266 0.000000 3.523185
LeftHand -18.782331 -0.000000 23.126174
LeftHandThumb1 -26.253704 0.000000 33.147579
Head -4.619604 -19.691981 -21.598275
